<svg width="50" height="57" viewBox="0 0 50 57" fill="none" xmlns="http://www.w3.org/2000/svg"><path d="M48.716 35.688c.785.844 1.213 2.04 1.213 3.165 0 1.266-.5 2.462-1.284 3.306.784.914 1.284 2.04 1.284 3.306 0 2.32-1.57 4.22-3.71 4.783a5.19 5.19 0 0 1 .357 1.828c0 2.743-2.21 4.924-4.992 4.924h-13.98c-1.926 0-3.924-.281-5.778-.914l-5.706-1.9C15.335 55.876 13.623 57 11.626 57H1.64C.713 57 0 56.297 0 55.382V25.771c0-.915.713-1.618 1.64-1.618h9.986c2.069 0 3.923 1.336 4.636 3.165 4.209-.985 8.203-6.541 9.487-11.535l.927-3.517c.214-.774.856-1.266 1.64-1.266h1.641c3.638 0 6.634 2.884 6.634 6.541v1.618c0 1.618-.357 5.416-1.356 8.3h9.772c2.782 0 4.993 2.18 4.993 4.923 0 1.266-.5 2.462-1.284 3.306zm-35.45 16.388v-23c0-.914-.713-1.617-1.64-1.617H3.281v26.235h8.345c.928 0 1.64-.703 1.64-1.618zm28.389-14.77c-.928 0-1.712-.844-1.712-1.759 0-.914.713-1.617 1.64-1.617h3.353c.927 0 1.64-.704 1.64-1.618 0-.914-.713-1.618-1.64-1.618h-16.62c-.927 0-1.64-.703-1.64-1.618 0-.914.713-1.617 1.64-1.617h3.424c.856-1.829 1.57-6.12 1.57-8.3v-1.618c0-1.829-1.498-3.306-3.353-3.306h-.356l-.571 2.322c-.856 3.235-2.64 6.681-4.922 9.284-2.353 2.673-4.85 4.29-7.489 4.783V50.95l6.348 1.758c1.498.493 3.067.774 4.708.774h13.909c.927 0 1.64-.703 1.64-1.617 0-.915-.713-1.618-1.64-1.618-.928 0-1.641-.704-1.641-1.618 0-.914.713-1.618 1.64-1.618h3.353c.927 0 1.64-.703 1.64-1.617 0-.915-.713-1.618-1.64-1.618h-3.352c-.928 0-1.641-.704-1.641-1.618 0-.914.713-1.618 1.64-1.618h3.353c.927 0 1.64-.703 1.64-1.617 0-.915-.713-1.618-1.64-1.618h-3.281zM9 49.502C9 50.35 8.348 51 7.5 51S6 50.284 6 49.502s.652-1.498 1.5-1.498c.783-.065 1.5.651 1.5 1.498zM31.498 0c.847 0 1.563.82 1.498 1.713v3.574c0 .968-.651 1.713-1.498 1.713S30 6.255 30 5.287V1.713C30 .745 30.651 0 31.498 0zm-6.923 7.5a1.48 1.48 0 0 1 0 2.075 1.48 1.48 0 0 1-2.075 0L20.425 7.5a1.48 1.48 0 0 1 0-2.075 1.48 1.48 0 0 1 2.075 0L24.575 7.5zm18-2.075a1.48 1.48 0 0 1 0 2.075L40.5 9.575a1.48 1.48 0 0 1-2.075 0 1.48 1.48 0 0 1 0-2.075L40.5 5.425a1.48 1.48 0 0 1 2.075 0z" fill="url(#a)"/><defs><linearGradient id="a" x2="55.8" y2="48.947" gradientUnits="userSpaceOnUse"><stop stop-color="#E458FC"/><stop offset="1" stop-color="#4FEEC0"/></linearGradient></defs></svg>