<svg width="68" height="68" viewBox="0 0 68 68" fill="none" xmlns="http://www.w3.org/2000/svg"><path d="M63.613 25.518c2.413.218 4.387 2.178 4.387 4.684v8.387c0 .872-.22 1.852-.658 2.615l-5.923 10.783V68h-2.193V51.334l6.142-11.22c.329-.435.439-.98.439-1.525v-8.496c0-1.307-1.097-2.397-2.413-2.397-1.207 0-2.194.872-2.413 2.07l-1.755 10.675-6.69 3.377-2.084 5.01-2.084-.762 2.303-5.882 6.47-3.159 1.646-9.586c.22-1.634 1.207-2.832 2.632-3.485v-8.061a2.193 2.193 0 0 0-2.193-2.179c-1.207 0-2.194.98-2.194 2.179v14.16H54.84V15.715a2.192 2.192 0 0 0-2.194-2.178c-1.206 0-2.193.98-2.193 2.178v16.339h-2.194v-14.16a2.193 2.193 0 0 0-2.194-2.179c-1.206 0-2.193.98-2.193 2.179v14.16h-2.194V22.25c0-.545-.219-1.09-.548-1.416-.987 1.307-2.303 2.288-3.839 2.941v21.35c0 1.96.549 3.813 1.645 5.446l2.742 4.03V68h-2.193V55.255L37.07 51.77c-1.316-1.961-1.974-4.249-1.974-6.645V24.429c-.33.109-.768.109-1.097.109-.329 0-.768-.11-1.097-.11v20.697c0 2.396-.658 4.684-1.974 6.645l-2.413 3.485V68h-2.193V54.602l2.741-4.03a9.643 9.643 0 0 0 1.646-5.447v-21.35c-1.536-.545-2.852-1.634-3.839-2.941-.33.327-.548.871-.548 1.416v9.804h-2.194V17.893a2.193 2.193 0 0 0-2.194-2.179c-1.206 0-2.193.98-2.193 2.179v14.16h-2.194V15.715a2.192 2.192 0 0 0-2.193-2.178c-1.207 0-2.194.98-2.194 2.178v16.339h-2.193v-14.16a2.193 2.193 0 0 0-2.194-2.179c-1.206 0-2.193.98-2.193 2.179v8.06c1.425.654 2.413 1.852 2.632 3.486l1.645 9.586 6.471 3.159 2.303 5.882-2.084.763-2.083-5.011-6.69-3.377-1.756-10.675c-.219-1.198-1.206-2.07-2.413-2.07-1.316 0-2.412 1.09-2.412 2.506v8.387c0 .545.11 1.09.438 1.525l6.142 11.22V68H6.581V51.987L.658 41.204C.22 40.44 0 39.46 0 38.589v-8.496c0-2.396 1.974-4.466 4.387-4.575v-7.625c0-2.397 1.974-4.357 4.387-4.357.878 0 1.755.327 2.413.762.658-1.743 2.194-2.94 4.168-2.94 1.974 0 3.62 1.197 4.168 2.94.658-.435 1.535-.762 2.413-.762 1.316 0 2.522.544 3.29 1.525C25.555 10.595 29.394 7 34 7c4.606 0 8.445 3.595 8.774 8.06.768-.87 1.974-1.524 3.29-1.524.878 0 1.755.327 2.413.762.659-1.743 2.194-2.94 4.168-2.94 1.974 0 3.62 1.197 4.168 2.94.658-.435 1.535-.762 2.413-.762 2.413 0 4.387 1.96 4.387 4.357v7.625zM34 22.25c3.62 0 6.58-2.941 6.58-6.536 0-3.594-2.96-6.535-6.58-6.535s-6.58 2.94-6.58 6.535S30.38 22.25 34 22.25zM43 0h2v2h-2V0zm0 4h2v2h-2V4zm2-2h2v2h-2V2zm-4 0h2v2h-2V2zM21 4h2v2h-2V4zm0 5h2v2h-2V9zm2-2h2v2h-2V7zm-4 0h2v2h-2V7zm15 4h2v2h-2v-2zm0 4h2v2h-2v-2zm2-2h2v2h-2v-2zm-4 0h2v2h-2v-2z" fill="url(#a)"/><defs><linearGradient id="a" x2="67.141" y2="67.141" gradientUnits="userSpaceOnUse"><stop stop-color="#E458FC"/><stop offset="1" stop-color="#4FEEC0"/></linearGradient></defs></svg>