<svg width="67" height="67" viewBox="0 0 67 67" fill="none" xmlns="http://www.w3.org/2000/svg"><path d="M65.42 13.535l1.58 1.58-3.722 3.722 1.466 1.466a1.09 1.09 0 0 1 0 1.58l-9.023 9.023a1.09 1.09 0 0 1-1.58 0l-1.466-1.467-1.128 1.128v1.58c.677.564 1.128 1.466 1.128 2.48 0 1.918-1.466 3.385-3.384 3.385h-1.353c.112.338.225.79.225 1.128 0 1.917-1.466 3.384-3.384 3.384h-1.353c.113.338.225.79.225 1.127 0 1.918-1.466 3.384-3.383 3.384h-1.354c.113.339.226.79.226 1.128 0 1.918-1.467 3.384-3.384 3.384h-5.189l-1.128 1.128 1.467 1.466a1.09 1.09 0 0 1 0 1.58l-9.024 9.023a1.09 1.09 0 0 1-1.579 0l-1.466-1.466L15.114 67l-1.579-1.58 3.723-3.721L5.3 49.742l-3.72 3.723L0 51.885l3.722-3.722-1.466-1.466a1.09 1.09 0 0 1 0-1.58l9.023-9.023a1.09 1.09 0 0 1 1.58 0l1.466 1.467 1.128-1.128a11.873 11.873 0 0 1 3.497-8.009l2.143-2.143v-.113c0-5.865 4.737-10.715 10.715-10.715h4.625l1.128-1.128-1.467-1.466a1.09 1.09 0 0 1 0-1.58l9.024-9.023a1.09 1.09 0 0 1 1.579 0l1.466 1.466L51.886 0l1.579 1.58-3.723 3.72L61.7 17.258l3.722-3.723zm-44.328 48.84l7.445-7.444-16.468-16.468-7.444 7.444 16.468 16.468zm28.2-26.62c.676 0 1.127-.45 1.127-1.127s-.451-1.128-1.128-1.128H30.906l-.451 1.58c-1.016 3.721-4.4 6.316-8.234 6.316-.677 0-1.128-.452-1.128-1.128V29.439l-.564.564c-1.805 1.805-2.82 4.287-2.82 6.88 0 .34-.113.565-.339.79l-1.466 1.467L27.86 51.096l1.467-1.466c.225-.226.45-.339.79-.339h5.639c.677 0 1.128-.45 1.128-1.128 0-.676-.451-1.128-1.128-1.128h-3.384V44.78h7.896c.676 0 1.128-.452 1.128-1.129 0-.676-.452-1.127-1.128-1.127h-4.512v-2.256h9.023c.677 0 1.128-.452 1.128-1.128 0-.677-.45-1.128-1.128-1.128h-4.511v-2.256h9.023zm.338-6.428l1.466-1.467L39.14 15.904l-1.467 1.466c-.225.226-.45.339-.79.339h-5.188c-4.624 0-8.46 3.722-8.46 8.46v12.858c2.37-.451 4.287-2.143 4.964-4.512l1.917-6.993c.226-.451.564-.79 1.128-.79h1.128c1.918 0 3.384-1.466 3.384-3.383h2.256c0 3.158-2.482 5.64-5.64 5.64h-.338l-.564 2.255h17.82v-1.128c0-.338.113-.564.339-.79zm5.301-.79l7.444-7.444L45.907 4.625l-7.444 7.444 16.468 16.468zM20.064 55.666l1.602-1.603 1.603 1.603-1.602 1.603-1.603-1.603zM42.73 10.333l1.603-1.602 1.603 1.602-1.603 1.603-1.603-1.603z" fill="#70C1C6"/></svg>