<svg width="39" height="42" viewBox="0 0 39 42" fill="none" xmlns="http://www.w3.org/2000/svg"><path fill-rule="evenodd" clip-rule="evenodd" d="M33.093 6.183c3.67 3.734 5.678 8.633 5.735 13.942 0 5.25-2.007 10.15-5.678 13.883-3.67 3.734-8.488 5.775-13.65 5.775a18.2 18.2 0 0 1-4.359-.525l-.86 1.75c-.344.759-1.377.875-1.893.175l-4.13-5.833c-.515-.758-.056-1.75.861-1.808l7.055-.234c.86-.058 1.433.875 1.032 1.633l-.803 1.634a17.33 17.33 0 0 0 3.04.291c9.061 0 16.46-7.524 16.46-16.741 0-9.217-7.398-16.742-16.46-16.742-3.155 0-6.194.934-8.833 2.625-.688.409-1.605.234-2.007-.466-.401-.7-.23-1.634.459-2.042C12.159 1.458 15.715.408 19.442.408c5.163 0 9.98 2.042 13.65 5.775zm-13.65-1.05c.803 0 1.433.642 1.433 1.459v12.6l6.998 5.366c.63.467.745 1.4.286 2.042-.286.408-.688.583-1.147.583-.287 0-.573-.116-.86-.291l-7.57-5.776-.058-.058-.057-.058-.058-.058-.057-.059c-.057 0-.057-.058-.057-.058l-.058-.058c-.057 0-.057-.059-.057-.059-.057 0-.057-.058-.057-.058-.058 0-.058-.058-.058-.058-.057 0-.057-.059-.057-.059V6.592c0-.817.63-1.459 1.434-1.459zM4.015 12.425a1.39 1.39 0 0 1-1.377-1.4c0-.773.617-1.4 1.377-1.4s1.376.627 1.376 1.4c0 .773-.616 1.4-1.376 1.4zm-2.409 9.042a1.39 1.39 0 0 1-1.377-1.4c0-.774.617-1.4 1.377-1.4s1.376.626 1.376 1.4c0 .773-.616 1.4-1.376 1.4zm2.409 9.041a1.39 1.39 0 0 1-1.377-1.4c0-.773.617-1.4 1.377-1.4s1.376.627 1.376 1.4c0 .773-.616 1.4-1.376 1.4z" fill="#70C1C6"/></svg>