<svg width="50" height="58" viewBox="0 0 50 58" fill="none" xmlns="http://www.w3.org/2000/svg"><path d="M48.133 8.277c.662 0 1.204.544 1.325 1.208V56.49c0 .724-.603 1.268-1.265 1.268H11.084A1.274 1.274 0 0 1 9.82 56.49v-4.591l-5.18.362h-.06a1.253 1.253 0 0 1-1.266-1.148L.06 4.23C0 3.504.542 2.96 1.205 2.9L38.193.302c.301-.06.662.06.903.302s.422.544.422.846L40 8.277h8.133zM9.819 9.485c0-.664.542-1.208 1.205-1.268H37.53l-.36-5.377L2.65 5.256l3.072 44.406 4.096-.302V9.485zm37.048 45.736l.06-44.467H12.29v44.467h34.578zM18.072 19.575c-.723 0-1.265-.544-1.265-1.269 0-.725.603-1.269 1.265-1.269h9.579c.723 0 1.265.605 1.265 1.27 0 .724-.603 1.268-1.265 1.268h-9.579zm0 5.86c-.723 0-1.265-.543-1.265-1.268s.603-1.27 1.265-1.27h23.073c.722 0 1.265.605 1.265 1.27 0 .725-.603 1.268-1.265 1.268H18.072zm0 5.86c-.723 0-1.265-.543-1.265-1.268s.603-1.269 1.265-1.269h23.073c.722 0 1.265.605 1.265 1.27 0 .724-.603 1.268-1.265 1.268H18.072zm0 5.861a1.237 1.237 0 0 1-1.265-1.268c0-.725.603-1.27 1.265-1.27h23.073c.722 0 1.265.605 1.265 1.27 0 .724-.603 1.268-1.265 1.268H18.072zm0 5.86a1.274 1.274 0 0 1-1.265-1.268c0-.725.603-1.269 1.265-1.269h23.073c.722 0 1.265.604 1.265 1.269 0 .725-.603 1.269-1.265 1.269H18.072zm23.012 3.324c.723 0 1.265.543 1.265 1.268s-.602 1.269-1.265 1.269H34.88c-.722 0-1.265-.544-1.265-1.269 0-.725.603-1.268 1.266-1.268h6.204z" fill="#70C1C6"/></svg>