<svg fill="#dde0e3" xmlns="http://www.w3.org/2000/svg" width="100" height="125" viewBox="0 0 100 125"><path d="M88.1 36.2L68.8 16.9C67.6 15.7 66 15 64.3 15H31.9c-1.7 0-3.3.7-4.6 1.9a6.42 6.42 0 0 0-1.9 4.6v8.6h-8.6c-1.7 0-3.3.7-4.6 1.9a6.42 6.42 0 0 0-1.9 4.6v67.1c0 3.5 2.9 6.4 6.4 6.4h51.6c3.5 0 6.4-2.9 6.4-6.4v-8.6h8.6c3.6 0 6.4-2.9 6.4-6.4V40.8c.3-1.7-.4-3.5-1.6-4.6zM68.2 22.4l14.5 14.5H69.9c-1 0-1.8-.8-1.8-1.8V22.4h.1zm2.4 81.2c0 1.2-1 2.1-2.1 2.1H16.9c-1.2 0-2.1-1-2.1-2.1V36.5c0-.6.2-1.1.6-1.5.4-.4.9-.6 1.5-.6h8.6v54.1c0 3.6 2.9 6.4 6.4 6.4h38.7v8.7zm12.9-13H31.9c-1.2 0-2.1-1-2.1-2.1V21.4c0-.6.2-1.1.6-1.5s.9-.6 1.5-.6l32 .1V35c0 3.3 2.7 6.1 6.1 6.1h15.7v47.3c0 1.2-1 2.2-2.2 2.2z"/><path d="M75.4 50.4H40.1c-1.2 0-2.1 1-2.1 2.1s1 2.1 2.1 2.1h35.3c1.2 0 2.1-1 2.1-2.1s-.9-2.1-2.1-2.1zm0 13.5H40.1c-1.2 0-2.1 1-2.1 2.1s1 2.1 2.1 2.1h35.3c1.2 0 2.1-1 2.1-2.1s-.9-2.1-2.1-2.1zm0 13.5H40.1c-1.2 0-2.1 1-2.1 2.1 0 1.2 1 2.1 2.1 2.1h35.3c1.2 0 2.1-1 2.1-2.1s-.9-2.1-2.1-2.1z"/></svg>