<svg id="Слой_1" xmlns="http://www.w3.org/2000/svg" width="185" height="54" viewBox="0 0 185 54"><style>.st0{fill:url(#Fill-1_1_)}.st1{enable-background:new}.st2{fill:#ad27df}.st3{fill:#35b1ad}</style><linearGradient id="Fill-1_1_" gradientUnits="userSpaceOnUse" x1="29.438" y1="470.174" x2="30.425" y2="469.186" gradientTransform="matrix(54.5 0 0 -54 -1605 25390)"><stop offset="0" stop-color="#c905eb"/><stop offset="1" stop-color="#13d79f"/></linearGradient><path id="Fill-1" class="st0" d="M26.1 0C11.7 0 0 12.1 0 27s11.7 27 26.1 27c10.3 0 19.2-6.1 23.4-15 .7-2 .7-4.2.6-5.6-.1-.8.2-1.5.7-2.1L52 30l2.4-2.6s-1 .2-2.3.6c-1.8.5-4.1 1.3-5.6 2.2-2.5 1.6-1.5 4.5-1.5 4.5l.7-.6.3 2.3s.1-1.4.9-1.4c.1 0 .3 0 .4.1 1.3.6.4 2.6-1 2.6H46c-1.5-.3-1.6-1-4.6-5.7-3-4.7-7.2-4.1-13.8-4.9-6.7-.9-11.7-6.3-11.7-6.3s1.9 4.4 5.2 6.8c3.3 2.5 10.5 2 9.2 3.8-.3.5-1 .6-1.7.6-2 0-4.8-1.2-4.8-1.2s.7 2 3.9 3.8c1.6.9 3.1 1.1 4.2 1.1s1.8-.2 1.8-.2-.1 1.2-1.6 1.3h-1c-1.3 0-2.7-.2-2.7-.2s2.6 2.3 4.8 2.9c.6.2 1.4.2 2.1.2 1.8 0 3.6-.4 3.6-.4s-.3 1.3-1.8 1.6c-.7.1-1.8.2-2.6.2H33s1 1.3 3 1.7c.9.2 1.7.2 2.4.2.9 0 1.5-.1 1.5-.1s-1.9 4.7-8.8 5.5c-.6.1-1.2.1-1.7.1-5.9 0-9.1-3.9-9.1-3.9s.3 2 1.6 3.5c1.4 1.5 3.4 2 3.4 2s-6.1 0-11.8-4.2C7.7 42 9 31.4 9 31.4s-1.2.7-1.8 4.1c-.5 3.3.7 6.3.7 6.3S3.6 38.5 3.7 29c.1-9.5 6.4-14.8 6.4-14.8s-1.4 0-2.6.9c-1.2.8-3.5 3.2-3.5 3.2s.1-3.6 4.5-8.6c3.7-4.2 10.9-4.5 13-4.5h.6s0-.3-1.1-.9c-1.1-.6-3.7-.7-3.7-.7S21.2 1 27.3 1h.5C32.6 1.1 39 4 42 5.5 37.6 2.1 32.1 0 26.1 0"/><g class="st1"><path class="st2" d="M67.4 30V10.3h5.8V30h-5.8zm8.2-15.1h5.5v3h.1c.8-2.1 2.3-3.3 4.6-3.3 3.4 0 5.3 2.1 5.3 5.7V30h-5.6v-8.4c0-1.5-.7-2.4-2.1-2.4-1.3 0-2.1 1-2.1 2.4V30h-5.6V14.9zm26.9 0h6.2l-5 6.4 5.4 8.7h-6.4l-3.1-5.3-.7 1V30h-5.6V10.3h5.6v10.1h.1l3.5-5.5z"/><path class="st2" d="M108.9 25.6c0-2.9 2.2-4.5 6.3-4.7l3.3-.2V20c0-1-.8-1.6-1.8-1.6-1.1 0-1.9.6-2 1.4h-5c.1-3.2 2.9-5.3 7.3-5.3 4.2 0 7 2.1 7 5.2V30h-5.5v-2h-.1c-.8 1.5-2.6 2.2-4.4 2.2-2.7 0-5.1-1.9-5.1-4.6zm9.6-.9v-1l-2.4.2c-1.1.1-1.7.6-1.7 1.3 0 .8.7 1.3 1.7 1.3 1.2 0 2.4-.7 2.4-1.8zm7.6-9.8h5.5v3h.1c.6-2.1 1.7-3.2 3.5-3.2.5 0 .9.1 1.3.2v4.7c-.5-.2-1.1-.3-1.6-.3-2.1 0-3.2 1.1-3.2 3.2V30h-5.6V14.9zm29.8 13.8c-1.3 1-3.5 1.7-5.9 1.7-4.5 0-7.2-2-7.2-5.5 0-2.2 1-3.7 3.4-5l1-.6c-1.8-1.8-2.4-3-2.4-4.4 0-2.8 2.6-4.8 6.2-4.8s6 1.9 6 4.6c0 2-1.3 3.8-3.8 5.2l2.6 2.8c.3-.5.5-1.2.5-2.2V19h4.4v2c0 1.8-.7 3.8-1.7 5l3.9 4h-5.8l-1.2-1.3zm-8.1-4.3c0 1.3 1.1 2.2 2.7 2.2 1.1 0 2.1-.3 2.6-.9l-3.5-3.7c-.1.1-.3.2-.4.2-1 .7-1.4 1.3-1.4 2.2zm4.9-9.2c0-1-.7-1.7-1.6-1.7-1 0-1.7.7-1.7 1.7 0 .7.4 1.3 1.6 2.4 1.1-.7 1.7-1.5 1.7-2.4zm15.8 10.4c0-2.9 2.2-4.5 6.3-4.7l3.3-.2V20c0-1-.8-1.6-1.8-1.6-1.1 0-1.9.6-2 1.4h-5c.1-3.2 2.9-5.3 7.3-5.3 4.2 0 7 2.1 7 5.2V30H178v-2h-.1c-.8 1.5-2.6 2.2-4.4 2.2-2.7 0-5-1.9-5-4.6zm9.5-.9v-1l-2.4.2c-1.1.1-1.7.6-1.7 1.3 0 .8.7 1.3 1.7 1.3 1.3 0 2.4-.7 2.4-1.8z"/></g><g class="st1"><path class="st3" d="M67.5 43v-4.5h.7l1.8 3.8 1.8-3.8h.7V43h-.6v-3.5l-1.6 3.4h-.4l-1.6-3.4V43h-.8zm6 0v-4.5h.6v3.6l2.5-3.6h.6V43h-.6v-3.6L74.1 43h-.6zm8.3 0H81l-2.2-2.2V43h-.6v-4.5h.6v2l2.1-2h.7l-2.3 2.2 2.5 2.3zm4.7-2.2c0 1.4-.8 2.3-1.9 2.3-.7 0-1.3-.4-1.5-1v2.4h-.6v-6h.5v1c.2-.6.8-1 1.6-1 1.2-.1 1.9.9 1.9 2.3zm-.6 0c0-1.1-.6-1.8-1.4-1.8-.9 0-1.4.7-1.4 1.8s.6 1.8 1.4 1.8c.9 0 1.4-.7 1.4-1.8zm1.3 0c0-1.4.8-2.3 2.1-2.3 1.2 0 2.1.9 2.1 2.3s-.8 2.3-2.1 2.3-2.1-.9-2.1-2.3zm3.5 0c0-1.1-.6-1.8-1.5-1.8s-1.5.7-1.5 1.8.6 1.8 1.5 1.8 1.5-.7 1.5-1.8zm5 2.2h-.8l-2.2-2.2V43h-.6v-4.5h.6v2l2.1-2h.7l-2.3 2.2 2.5 2.3zm4.7-2.2c0 1.4-.8 2.3-1.9 2.3-.7 0-1.3-.4-1.5-1v2.4h-.6v-6h.5v1c.2-.6.8-1 1.6-1 1.1-.1 1.9.9 1.9 2.3zm-.6 0c0-1.1-.6-1.8-1.4-1.8-.9 0-1.4.7-1.4 1.8s.6 1.8 1.4 1.8c.8 0 1.4-.7 1.4-1.8zm5.1 1c-.1.8-.9 1.4-1.9 1.4-1.3 0-2.1-.9-2.1-2.3s.8-2.3 2-2.3 2 .9 2 2.2v.2h-3.4c0 1 .6 1.7 1.5 1.7.7 0 1.2-.4 1.3-.9h.6zm-3.3-1.3h2.8c0-.9-.6-1.5-1.4-1.5-.8-.1-1.3.6-1.4 1.5zm3.7 3.7v-1.7h.4c.3-.2.5-.8.5-1.5 0-.3.2-2.3.2-2.6h3v4h.7v1.7h-.5V43h-3.8v1.2h-.5zm3.5-5.2h-1.9c0 .2-.1 1.8-.2 2.1 0 .6-.2 1.1-.4 1.4h2.5V39zm2 4v-4.5h.6v3.6l2.5-3.6h.6V43h-.6v-3.6l-2.5 3.6h-.6zm8.1-4h-1.5v4h-.6v-4h-1.5v-.5h3.6v.5zm3.7 1.9h-2.5V43h-.6v-4.5h.6v1.9h2.5v-1.9h.6V43h-.6v-2.1zm1.5.9c0-.8.6-1.2 1.6-1.3l1.4-.1V40c0-.7-.4-1-1.1-1-.7 0-1.1.3-1.2.9h-.6c.1-.8.7-1.4 1.8-1.4 1 0 1.7.6 1.7 1.5v3h-.5v-.9c-.3.6-.9.9-1.5.9-1 .1-1.6-.4-1.6-1.2zm3-.5v-.5l-1.3.1c-.7 0-1.1.4-1.1.9s.4.8 1 .8c.8 0 1.4-.5 1.4-1.3zm4.2 0h-.9l-1.2 1.7h-.7l1.3-1.8c-.7-.1-1.1-.6-1.1-1.3 0-.9.6-1.4 1.6-1.4h1.6V43h-.6v-1.7zm0-.4V39h-1c-.7 0-1.1.4-1.1 1 0 .5.4.9 1.1.9h1zm3.3-.1c0-1.4.8-2.3 2.1-2.3 1.2 0 2.1.9 2.1 2.3s-.8 2.3-2.1 2.3-2.1-.9-2.1-2.3zm3.5 0c0-1.1-.6-1.8-1.5-1.8s-1.5.7-1.5 1.8.6 1.8 1.5 1.8 1.5-.7 1.5-1.8zm5.5 0c0 1.4-.8 2.3-1.9 2.3-.7 0-1.3-.4-1.5-1v2.4h-.6v-6h.5v1c.2-.6.8-1 1.6-1 1.1-.1 1.9.9 1.9 2.3zm-.6 0c0-1.1-.6-1.8-1.4-1.8-.9 0-1.4.7-1.4 1.8s.6 1.8 1.4 1.8c.8 0 1.4-.7 1.4-1.8zm2-1.8v4h-.6v-4.5h2.9v.5H145zm2.7 2.8c0-.8.6-1.2 1.6-1.3l1.4-.1V40c0-.7-.4-1-1.1-1-.7 0-1.1.3-1.2.9h-.6c.1-.8.7-1.4 1.8-1.4 1 0 1.7.6 1.7 1.5v3h-.5v-.9c-.3.6-.9.9-1.5.9-1 .1-1.6-.4-1.6-1.2zm3-.5v-.5l-1.3.1c-.7 0-1.1.4-1.1.9s.4.8 1 .8c.8 0 1.4-.5 1.4-1.3zm4.7-.4h-2.5V43h-.6v-4.5h.6v1.9h2.5v-1.9h.6V43h-.6v-2.1zm1.7 2.1v-4.5h.6v3.6l2.5-3.6h.6V43h-.6v-3.6l-2.5 3.6h-.6zm4.4-1.1h.6c.1.5.5.8 1.2.8s1.1-.3 1.1-.9c0-.6-.4-.8-1.2-.8h-.7v-.5h.7c.6 0 1-.3 1-.8 0-.4-.3-.8-1-.8-.6 0-1 .3-1.1.8h-.6c.1-.7.7-1.2 1.7-1.2s1.5.5 1.5 1.2c0 .5-.3.9-.8 1 .6.1 1 .5 1 1.1 0 .8-.7 1.4-1.7 1.4-.9-.1-1.5-.6-1.7-1.3zm4.2-.1c0-.8.6-1.2 1.6-1.3l1.4-.1V40c0-.7-.4-1-1.1-1-.7 0-1.1.3-1.2.9h-.6c.1-.8.7-1.4 1.8-1.4 1 0 1.7.6 1.7 1.5v3h-.5v-.9c-.3.6-.9.9-1.5.9-1 .1-1.6-.4-1.6-1.2zm3-.5v-.5l-1.3.1c-.7 0-1.1.4-1.1.9s.4.8 1 .8c.8 0 1.4-.5 1.4-1.3zm5.4 2.9V43h-3.8v-4.5h.6v4h2.4v-4h.6v4h.7v1.7h-.5zm1.2-1.2v-4.5h.6v3.6l2.5-3.6h.6V43h-.6v-3.6l-2.5 3.6h-.6zm7.3-1.7h-.9l-1.2 1.7h-.7l1.3-1.8c-.7-.1-1.1-.6-1.1-1.3 0-.9.6-1.4 1.6-1.4h1.6V43h-.6v-1.7zm0-.4V39h-1c-.7 0-1.1.4-1.1 1 0 .5.4.9 1.1.9h1z"/></g></svg>