<svg width="185" height="54" viewBox="0 0 185 54" xmlns="http://www.w3.org/2000/svg"><title>D350C6E4-C636-47DF-BC7A-10D45D9E1D97</title><g fill="#FFF" fill-rule="evenodd"><path d="M26.13 0C11.699 0 0 12.088 0 27s11.699 27 26.13 27c10.276 0 19.166-6.131 23.434-15.045.729-2.018.706-4.238.598-5.552-.063-.77.2-1.53.71-2.077l1.225-1.313 2.403-2.576s-.96.211-2.26.577c-1.755.493-4.132 1.268-5.613 2.188-2.58 1.601-1.63 4.512-1.63 4.512l.68-.582.271 2.329s.102-1.421.924-1.421c.127 0 .27.033.433.11 1.304.622.397 2.647-.956 2.647-.087 0-.175-.009-.265-.026-1.493-.291-1.63-1.019-4.615-5.677-2.987-4.657-7.195-4.075-13.846-4.948-6.651-.874-11.674-6.26-11.674-6.26s1.9 4.367 5.158 6.842c3.258 2.474 10.452 2.037 9.23 3.784-.332.476-.969.65-1.717.65-1.998 0-4.798-1.232-4.798-1.232s.679 2.038 3.937 3.784c1.629.874 3.122 1.092 4.208 1.092 1.086 0 1.764-.218 1.764-.218s-.135 1.164-1.629 1.31a10 10 0 0 1-.954.04c-1.32 0-2.71-.186-2.71-.186s2.578 2.329 4.75 2.911c.62.166 1.352.226 2.08.226 1.82 0 3.621-.371 3.621-.371s-.271 1.31-1.764 1.6c-.747.146-1.765.183-2.596.183-.832 0-1.476-.037-1.476-.037s.95 1.31 2.986 1.747c.872.187 1.695.24 2.35.24.875 0 1.45-.095 1.45-.095s-1.9 4.658-8.823 5.531a13.69 13.69 0 0 1-1.713.11c-5.855 0-9.146-3.894-9.146-3.894s.272 2.038 1.63 3.493c1.356 1.456 3.393 2.038 3.393 2.038s-6.109 0-11.81-4.221c-5.7-4.221-4.344-14.846-4.344-14.846s-1.221.727-1.764 4.075c-.543 3.348.678 6.259.678 6.259s-4.343-3.202-4.208-12.663c.136-9.461 6.38-14.847 6.38-14.847s-1.357 0-2.579.874c-1.221.873-3.529 3.202-3.529 3.202s.136-3.639 4.48-8.588c3.692-4.206 10.914-4.522 12.998-4.522.368 0 .576.01.576.01s0-.291-1.086-.873c-1.086-.582-3.665-.728-3.665-.728S21.173.941 27.273.941c.16 0 .322.001.486.005 4.796.11 11.28 3.098 14.203 4.575C37.57 2.058 32.082 0 26.13 0"/><text font-family="SFProDisplay-Heavy, SF Pro Display" font-size="28" font-weight="600"><tspan x="66" y="30">Inkar &amp; a</tspan></text><text font-family="SFProDisplay-Light, SF Pro Display" font-size="9" font-weight="300"><tspan x="67" y="43">микрокредитная организация</tspan></text></g></svg>