<svg width="74" height="66" viewBox="0 0 74 66" xmlns="http://www.w3.org/2000/svg"><title>81DB5BF4-B26D-4274-9A75-3DC1F05B07C0</title><defs><linearGradient x1="0%" y1="0%" x2="98.736%" y2="98.736%" id="a"><stop stop-color="#E458FC" offset="0%"/><stop stop-color="#4FEEC0" offset="100%"/></linearGradient></defs><path d="M1.874 13.124v45.938a4.693 4.693 0 0 0 4.688 4.688h59.999a4.693 4.693 0 0 0 4.688-4.688V13.124H1.874zm4.688-11.25a4.693 4.693 0 0 0-4.688 4.688v4.688H71.25V6.562a4.693 4.693 0 0 0-4.688-4.688h-60zm0 63.75A6.57 6.57 0 0 1 0 59.062v-52.5A6.57 6.57 0 0 1 6.562 0h60a6.57 6.57 0 0 1 6.562 6.562v52.5a6.57 6.57 0 0 1-6.562 6.562h-60zM8.437 4.686a1.874 1.874 0 1 1 .001 3.749 1.874 1.874 0 0 1-.001-3.749zm7.5 0a1.874 1.874 0 1 1 .001 3.749 1.874 1.874 0 0 1-.001-3.749zm7.5 0a1.874 1.874 0 1 1 .001 3.749 1.874 1.874 0 0 1-.001-3.749zm3.75 33.75c1.036 0 1.875 1.259 1.875 2.812s-.839 2.812-1.875 2.812-1.875-1.259-1.875-2.812.839-2.812 1.875-2.812zm18.75 0c1.035 0 1.875 1.259 1.875 2.812s-.84 2.812-1.875 2.812c-1.035 0-1.875-1.259-1.875-2.812s.84-2.812 1.875-2.812zM30.314 55.311c-.392 0-.761-.274-.996-.74-.237-.467-.314-1.073-.208-1.637.05-.285 1.366-6.998 7.452-6.998 6.088 0 7.403 6.713 7.454 6.998.105.564.03 1.17-.208 1.637-.24.466-.605.74-.995.74h-12.5z" fill="url(#a)" fill-rule="evenodd"/></svg>